<?xml version="1.0" encoding="utf-8"?>
<!-- Generator: Adobe Illustrator 22.0.1, SVG Export Plug-In . SVG Version: 6.00 Build 0)  -->
<svg version="1.1" id="Layer_1" xmlns="http://www.w3.org/2000/svg" xmlns:xlink="http://www.w3.org/1999/xlink" x="0px" y="0px"
	 viewBox="0 0 652.3 220.8" style="enable-background:new 0 0 652.3 220.8;" xml:space="preserve">
<style type="text/css">
	.st0{fill:#FFFFFF;}
</style>
<title>SoftUniDigital_Logo_OneLine_White</title>
<g>
	<g>
		<path class="st0" d="M354,35c-0.4,0.7-1,1.4-1.6,1.9c-0.6,0.4-1.4,0.7-2.2,0.6c-0.9,0-1.8-0.3-2.5-0.8l-3.1-1.7
			c-1.3-0.7-2.6-1.2-3.9-1.7c-1.6-0.5-3.3-0.8-5-0.8c-3.3,0-5.7,0.7-7.3,2.1c-1.6,1.4-2.5,3.5-2.4,5.6c0,1.4,0.5,2.8,1.4,3.8
			c1.1,1.1,2.4,2,3.8,2.6c1.7,0.8,3.5,1.5,5.4,2c2,0.6,4,1.3,6.1,2s4.2,1.6,6.1,2.6c2,1,3.8,2.3,5.4,3.8c1.6,1.6,2.9,3.5,3.8,5.6
			c1,2.5,1.5,5.3,1.4,8c0,3.3-0.6,6.6-1.8,9.7c-1.2,3-2.9,5.7-5.2,7.9c-2.4,2.3-5.3,4.1-8.4,5.3c-3.6,1.3-7.5,2-11.4,1.9
			c-2.4,0-4.8-0.2-7.1-0.7c-2.4-0.5-4.7-1.1-7-2c-2.2-0.8-4.3-1.9-6.4-3.1c-1.9-1.1-3.6-2.5-5.2-4l5.1-8.1c0.4-0.6,1-1.1,1.6-1.5
			c0.7-0.4,1.4-0.6,2.2-0.6c1.1,0,2.2,0.4,3.1,1c1,0.7,2.2,1.4,3.5,2.2c1.4,0.8,2.9,1.5,4.5,2.1c1.9,0.7,4,1,6.1,1
			c3.2,0,5.6-0.7,7.4-2.1s2.6-3.6,2.7-6.7c0-1.5-0.5-3.1-1.5-4.2c-1.1-1.2-2.3-2.1-3.8-2.7c-1.7-0.8-3.5-1.4-5.3-1.9
			c-2-0.5-4-1.2-6.1-1.8c-2.1-0.7-4.1-1.5-6.1-2.5s-3.8-2.3-5.3-3.9c-1.6-1.7-2.9-3.8-3.8-6c-1-2.8-1.5-5.8-1.4-8.8
			c0-2.8,0.6-5.6,1.7-8.2c1.2-2.7,2.9-5.1,5-7.2c2.3-2.2,5.1-3.9,8.1-5c3.5-1.3,7.2-1.9,11-1.9c2.3,0,4.5,0.2,6.7,0.5
			c2.1,0.3,4.2,0.9,6.2,1.6c1.9,0.7,3.7,1.5,5.5,2.5c1.6,0.9,3.2,2,4.6,3.3L354,35z"/>
	</g>
	<g>
		<path class="st0" d="M392.3,40.6c3.8,0,7.5,0.6,11.1,1.9c3.2,1.2,6.2,3.1,8.6,5.5c2.4,2.5,4.3,5.4,5.6,8.6c1.4,3.6,2.1,7.5,2,11.4
			c0.1,3.9-0.6,7.8-2,11.5c-1.2,3.3-3.1,6.2-5.6,8.7c-2.4,2.4-5.4,4.3-8.6,5.5c-3.5,1.3-7.3,2-11.1,1.9c-3.8,0.1-7.6-0.6-11.1-1.9
			c-3.2-1.2-6.2-3.1-8.6-5.5c-2.5-2.5-4.4-5.4-5.6-8.7c-1.4-3.7-2.1-7.6-2-11.5c-0.1-3.9,0.6-7.8,2-11.4c1.2-3.2,3.1-6.2,5.6-8.6
			c2.5-2.4,5.4-4.3,8.6-5.5C384.8,41.2,388.5,40.6,392.3,40.6z M392.3,83.8c3.7,0,6.4-1.3,8.1-3.9s2.6-6.5,2.6-11.8
			s-0.9-9.2-2.6-11.8s-4.4-3.9-8.1-3.9c-3.8,0-6.5,1.3-8.3,3.9s-2.6,6.5-2.6,11.8s0.9,9.2,2.6,11.8S388.5,83.8,392.3,83.8z"/>
	</g>
	<g>
		<path class="st0" d="M480.9,52.4v26.5c0,1.1,0.3,2.2,0.9,3.1c0.6,0.8,1.6,1.3,2.6,1.2c0.5,0,1,0,1.5-0.2c0.3-0.1,0.7-0.2,1-0.4
			l0.8-0.4c0.3-0.1,0.6-0.2,0.9-0.2c0.4,0,0.8,0.1,1.2,0.3c0.4,0.3,0.7,0.7,0.9,1.1l4.8,7.6c-2.1,1.6-4.5,2.7-7,3.5
			c-2.6,0.8-5.3,1.2-8,1.2c-2.3,0-4.6-0.3-6.7-1.1c-3.7-1.3-6.6-4.3-7.9-8.1c-0.7-2.1-1-4.2-1-6.4V52.4H446v42.4h-16V52.4l-3.5-0.7
			c-1.1-0.2-2-0.6-2.9-1.3c-0.8-0.6-1.2-1.6-1.1-2.6v-6.3h7.5v-3c0-2.8,0.5-5.6,1.5-8.3c0.9-2.4,2.4-4.6,4.2-6.3
			c1.9-1.8,4.2-3.2,6.7-4.1c2.9-1,5.9-1.5,9-1.4c1.2,0,2.4,0.1,3.6,0.2c1.2,0.2,2.3,0.4,3.5,0.8l-0.3,7.8c0,0.9-0.5,1.8-1.4,2.2
			c-0.4,0.2-0.8,0.4-1.3,0.5c-0.4,0.1-0.9,0.2-1.3,0.1c-1.3,0-2.5,0.1-3.8,0.4c-1,0.2-2,0.7-2.8,1.5c-0.8,0.8-1.4,1.7-1.7,2.8
			c-0.4,1.4-0.6,2.9-0.6,4.3v2.5h20.4l3.2-13.1c0.4-1.6,1.6-2.5,3.5-2.5h8.3v15.6h13.2v10.9H480.9z"/>
	</g>
	<g>
		<path class="st0" d="M533.5,81.1c2.1,0,4.3-0.4,6.2-1.2c1.8-0.7,3.4-1.9,4.7-3.3c1.3-1.5,2.3-3.3,2.9-5.3c0.7-2.3,1-4.7,1-7.1
			V19.8h17.4v44.4c0.1,4.3-0.7,8.6-2.2,12.7c-1.4,3.7-3.6,7.1-6.4,9.9c-2.9,2.9-6.3,5.1-10.1,6.5c-8.7,3.1-18.2,3.1-26.9,0
			c-3.8-1.4-7.3-3.6-10.1-6.5c-2.8-2.8-5-6.2-6.4-9.9c-1.5-4-2.3-8.3-2.2-12.7V19.8h17.4v44.4c0,2.4,0.3,4.8,1,7.1
			c0.6,1.9,1.6,3.8,2.9,5.3s2.9,2.6,4.6,3.3C529.2,80.7,531.3,81.1,533.5,81.1z"/>
	</g>
	<g>
		<path class="st0" d="M590.4,47.2c1-1,2.1-1.8,3.2-2.7c1.1-0.8,2.3-1.5,3.5-2.1c1.3-0.6,2.7-1,4.1-1.3c1.6-0.3,3.2-0.5,4.8-0.5
			c2.7-0.1,5.3,0.5,7.8,1.5c2.2,1,4.1,2.4,5.7,4.2c1.6,1.9,2.8,4.1,3.5,6.4c0.8,2.6,1.2,5.4,1.1,8.1v33.9h-16V60.9
			c0.1-2.2-0.5-4.3-1.8-6.1c-1.3-1.5-3.3-2.3-5.3-2.2c-1.7,0-3.4,0.4-4.9,1.1c-1.6,0.8-3.1,1.8-4.5,3v38.1h-16V41.4h9.9
			c1.8-0.1,3.4,1,3.9,2.7L590.4,47.2z"/>
		<path class="st0" d="M652.3,26.8c0,1.2-0.3,2.5-0.8,3.6s-1.2,2.1-2.1,2.9c-0.9,0.8-2,1.5-3.1,2c-1.2,0.5-2.5,0.8-3.8,0.8
			s-2.5-0.2-3.7-0.8c-1.1-0.5-2.1-1.2-3-2s-1.6-1.8-2.1-2.9s-0.8-2.3-0.8-3.6c0-1.3,0.2-2.5,0.8-3.7c0.5-1.1,1.2-2.1,2.1-3
			c0.9-0.8,1.9-1.5,3-2c1.2-0.5,2.4-0.7,3.7-0.7s2.6,0.2,3.8,0.7s2.2,1.1,3.1,2c0.9,0.9,1.6,1.9,2.1,3
			C652.1,24.3,652.3,25.5,652.3,26.8z M650.7,41.4v53.4h-16V41.4H650.7z"/>
	</g>
	<g>
		<path class="st0" d="M380.6,150.4c0.1,5.1-0.9,10.2-2.8,15c-1.8,4.5-4.5,8.5-7.9,11.9c-3.5,3.4-7.7,6.1-12.3,7.8
			c-5.1,1.9-10.5,2.9-15.9,2.8h-29.1v-75h29.1c5.4-0.1,10.8,0.9,15.9,2.8c4.6,1.8,8.8,4.4,12.3,7.8c3.4,3.4,6.1,7.4,7.9,11.9
			C379.7,140.2,380.6,145.3,380.6,150.4z M362.8,150.4c0-3.4-0.4-6.8-1.4-10c-0.9-2.8-2.3-5.4-4.1-7.6c-1.8-2.1-4.1-3.7-6.6-4.8
			c-2.8-1.2-5.9-1.7-8.9-1.7H330v48.2h11.6c3.1,0.1,6.1-0.5,8.9-1.7c2.5-1.1,4.8-2.7,6.6-4.8c1.9-2.2,3.3-4.8,4.1-7.6
			C362.3,157.3,362.8,153.8,362.8,150.4L362.8,150.4z"/>
	</g>
	<g>
		<path class="st0" d="M406.2,119.9c0,1.2-0.3,2.5-0.8,3.6s-1.2,2.1-2.1,2.9s-2,1.5-3.1,2c-1.2,0.5-2.5,0.8-3.8,0.8
			s-2.5-0.2-3.7-0.8c-1.1-0.5-2.1-1.2-3-2s-1.6-1.8-2.1-2.9s-0.7-2.3-0.7-3.6c0-1.3,0.2-2.5,0.8-3.7c0.5-1.1,1.2-2.1,2.1-3
			c0.9-0.8,1.9-1.5,3-2c1.2-0.5,2.4-0.7,3.7-0.7c1.3,0,2.6,0.2,3.8,0.7c2.3,0.9,4.2,2.7,5.2,5C406,117.4,406.2,118.6,406.2,119.9z
			 M404.6,134.5v53.4h-16v-53.4L404.6,134.5L404.6,134.5z"/>
		<path class="st0" d="M464.2,136.2v5.8c0,0.8-0.2,1.5-0.8,2.1c-0.7,0.6-1.6,1-2.5,1.2l-3.9,0.9c0.2,0.8,0.4,1.5,0.5,2.3
			s0.2,1.6,0.2,2.5c0,2.5-0.5,5-1.7,7.2c-1.1,2.1-2.7,4-4.6,5.4c-2.1,1.6-4.4,2.7-6.9,3.4c-2.8,0.8-5.6,1.2-8.5,1.2
			c-0.8,0-1.6,0-2.4-0.1c-0.8,0-1.6-0.1-2.3-0.3c-1,0.4-1.6,1.4-1.8,2.4c0,0.9,0.6,1.7,1.4,1.9c1.2,0.5,2.5,0.7,3.8,0.8
			c1.6,0.2,3.4,0.3,5.4,0.3c2,0.1,4.1,0.2,6.1,0.4c2.1,0.2,4.1,0.5,6.1,1c1.9,0.4,3.7,1.1,5.4,2.2c1.6,1,2.9,2.4,3.8,4
			c1,2,1.5,4.2,1.4,6.4c0,2.5-0.6,4.9-1.8,7.1c-1.2,2.4-3,4.5-5.1,6.1c-2.5,1.9-5.3,3.4-8.3,4.3c-3.7,1.1-7.5,1.7-11.3,1.6
			c-3.6,0.1-7.3-0.3-10.8-1.2c-2.7-0.6-5.2-1.7-7.6-3.1c-1.8-1.1-3.3-2.6-4.5-4.4c-0.9-1.6-1.4-3.4-1.4-5.2
			c-0.1-2.2,0.7-4.3,2.1-5.9c1.6-1.7,3.6-3,5.8-3.8c-2.8-1.6-4.4-4.6-4.2-7.8c0-0.8,0.1-1.7,0.4-2.5c0.3-0.9,0.7-1.8,1.3-2.6
			c0.6-0.9,1.4-1.7,2.2-2.4c1-0.8,2-1.5,3.2-2c-2.7-1.4-4.9-3.4-6.6-5.8c-1.6-2.5-2.5-5.5-2.4-8.5c0-2.5,0.5-5,1.7-7.2
			c1.1-2.1,2.7-4,4.7-5.5c2.1-1.6,4.5-2.7,7-3.4c2.8-0.8,5.8-1.2,8.7-1.2c4.1-0.1,8.3,0.8,12,2.6L464.2,136.2z M448.4,189.9
			c0.1-1.2-0.6-2.3-1.7-2.8c-1.4-0.6-2.9-1.1-4.4-1.2c-2-0.3-4.1-0.4-6.1-0.4c-2.2-0.1-4.5-0.2-6.7-0.4c-0.9,0.6-1.8,1.4-2.5,2.3
			c-0.6,0.8-1,1.8-1,2.9c0,0.7,0.2,1.4,0.5,2.1c0.4,0.7,1,1.3,1.7,1.6c1,0.5,2.2,0.9,3.3,1.1c1.7,0.3,3.5,0.4,5.3,0.4
			c1.9,0,3.8-0.1,5.7-0.4c1.2-0.2,2.4-0.6,3.5-1.1c0.8-0.4,1.4-1,1.8-1.7C448.2,191.4,448.4,190.7,448.4,189.9z M436.1,158.4
			c2.7,0,4.6-0.7,5.7-2c1.2-1.4,1.9-3.2,1.8-5.1c0.1-1.9-0.5-3.7-1.8-5.1c-1.2-1.2-3.1-1.9-5.7-1.9s-4.6,0.6-5.7,1.9
			c-1.2,1.4-1.9,3.2-1.8,5.1c0,1,0.1,1.9,0.4,2.8c0.3,0.8,0.7,1.6,1.4,2.2c0.7,0.7,1.5,1.2,2.3,1.5
			C433.8,158.3,434.9,158.5,436.1,158.4L436.1,158.4z"/>
		<path class="st0" d="M488.9,119.9c0,1.2-0.3,2.5-0.8,3.6s-1.2,2.1-2.1,2.9s-2,1.5-3.1,2c-1.2,0.5-2.5,0.8-3.8,0.8
			s-2.5-0.2-3.7-0.8c-1.1-0.5-2.1-1.2-3-2s-1.6-1.8-2.1-2.9s-0.8-2.3-0.8-3.6c0-1.3,0.2-2.5,0.8-3.7c0.5-1.1,1.2-2.1,2.1-3
			c0.9-0.8,1.9-1.5,3-2c1.2-0.5,2.4-0.7,3.7-0.7c1.3,0,2.6,0.2,3.8,0.7c2.3,0.9,4.2,2.7,5.2,5C488.6,117.4,488.9,118.6,488.9,119.9z
			 M487.2,134.5v53.4h-16v-53.4L487.2,134.5L487.2,134.5z"/>
		<path class="st0" d="M517.5,188.8c-2.3,0-4.6-0.3-6.7-1.1c-3.7-1.3-6.6-4.3-7.9-8.1c-0.7-2.1-1-4.2-1-6.4v-27.6h-4.5
			c-1.6,0.1-2.9-1.2-3-2.7c0-0.1,0-0.3,0-0.4v-6.2l8.5-1.6l3.1-13c0.4-1.6,1.6-2.5,3.5-2.5h8.3v15.6H531v10.9h-13.2v26.5
			c0,1.1,0.3,2.2,0.9,3.1c0.6,0.8,1.6,1.3,2.6,1.2c0.5,0,1,0,1.5-0.2c0.3-0.1,0.7-0.2,1-0.4l0.8-0.4c0.3-0.1,0.6-0.2,0.9-0.2
			c0.4,0,0.8,0.1,1.2,0.3c0.4,0.3,0.7,0.7,0.9,1.1l4.8,7.6c-2.1,1.6-4.4,2.7-7,3.5C522.8,188.4,520.2,188.8,517.5,188.8z"/>
		<path class="st0" d="M536.7,142c3.1-2.8,6.8-5,10.7-6.4c4.1-1.4,8.3-2.1,12.6-2.1c3,0,5.9,0.5,8.7,1.6c2.5,1,4.7,2.5,6.6,4.4
			c1.8,1.9,3.2,4.2,4.1,6.7c1,2.7,1.5,5.6,1.4,8.4v33.3h-7.3c-1.2,0.1-2.3-0.1-3.4-0.6c-0.9-0.6-1.6-1.5-1.9-2.6l-1.1-2.9
			c-1.3,1.1-2.6,2.1-3.9,3c-1.2,0.8-2.5,1.6-3.8,2.2c-1.3,0.6-2.8,1.1-4.2,1.3c-1.6,0.3-3.3,0.5-5,0.4c-2.3,0-4.5-0.3-6.6-1
			c-1.9-0.6-3.6-1.5-5.1-2.8c-1.4-1.3-2.5-2.8-3.2-4.6c-0.8-2-1.2-4.2-1.1-6.4c0-2,0.5-4,1.4-5.8c1.2-2.2,2.9-4.1,5-5.4
			c2.9-1.9,6.2-3.3,9.6-4.1c5-1.2,10.1-1.8,15.2-1.9v-2.3c0-3.1-0.6-5.4-1.9-6.8c-1.4-1.5-3.4-2.2-5.5-2.1c-1.6,0-3.1,0.2-4.6,0.6
			c-1.1,0.4-2.2,0.8-3.2,1.4c-0.9,0.5-1.9,1-2.8,1.4c-1,0.4-2.1,0.6-3.2,0.6c-1,0-2-0.3-2.8-0.8c-0.7-0.5-1.4-1.2-1.8-2L536.7,142z
			 M565.4,166.2c-2.6,0.1-5.3,0.4-7.9,0.8c-1.7,0.3-3.3,0.8-4.9,1.5c-1,0.5-1.9,1.2-2.5,2.1c-0.5,0.8-0.7,1.7-0.7,2.6
			c0,1.8,0.5,3.1,1.5,3.8c1.3,0.8,2.8,1.2,4.4,1.1c1.9,0,3.7-0.3,5.4-1.1c1.8-0.9,3.3-2.1,4.7-3.5V166.2z"/>
		<path class="st0" d="M607.1,110.9v77h-16v-77C591.1,110.9,607.1,110.9,607.1,110.9z"/>
	</g>
</g>
<path class="st0" d="M271.2,64.7L146.9,3.2c-8.1-4.1-17.7-3.9-25.7,0.4L5.5,65C-2,68.9-1.9,79.7,5.8,83.5L44,102.9l-1.5,73.7
	l91.4,43l88.9-42.8l0.8-72.4l47.1-20.8C278.9,80,279.2,68.6,271.2,64.7z M194.7,158.9l-60.9,29.3l-62.6-29.4l0.8-41.7l53.1,27
	c3,1.5,6.3,2.3,9.6,2.3s6.5-0.7,9.5-2.2l15-7.5c1,6.7,1.9,12.5,3.3,16.3c1.5,4,5.3,6.6,9.5,6.6c0.5,0,1,0,1.5-0.1
	c3.9-0.6,7-3.4,8.3-7.2c4.9-14.8,9.8-28.6,13.4-37.5L194.7,158.9z M189.8,92c-3.5,1.8-6,5.8-13.6,26.2c-0.7,2-1.5,4-2.2,5.9
	c-1.7-8.7-3.6-13.4-8-15.8c-2.7-1.4-5.8-1.4-8.5-0.1h-0.1l-22.5,11.3L46.5,74.7L134,26.5l96,48L189.8,92z"/>
</svg>
