<?xml version="1.0" encoding="utf-8"?>
<!-- Generator: Adobe Illustrator 22.0.1, SVG Export Plug-In . SVG Version: 6.00 Build 0)  -->
<svg version="1.1" id="Layer_1" xmlns="http://www.w3.org/2000/svg" xmlns:xlink="http://www.w3.org/1999/xlink" x="0px" y="0px"
	 viewBox="0 0 825.3 214.2" style="enable-background:new 0 0 825.3 214.2;" xml:space="preserve">
<style type="text/css">
	.st0{fill:#FFFFFF;}
</style>
<title>SoftUni_Foundation_Logo_Oneline_White</title>
<path class="st0" d="M141.1,0L0,75.1l55.1,28.1v68.3l86,42.7l86-42.7v-68.3l55.1-28.1L141.1,0z M200.6,155l-59.4,29.5h-0.1H141
	L81.6,155v-38.3l59.5,30.3l24.8-12.6v34.8l9-17.4l9.6,8.8V125l16.2-8.3V155z M184.4,95.2l-34.9-23.2l-18.6,10.5l34.7,22.2
	l-24.4,12.5l0,0L58.5,75.1l82.7-45.3l82.7,45.3L184.4,95.2z"/>
<g>
	<path class="st0" d="M370.3,42c-0.4,0.7-0.9,1.3-1.6,1.8c-0.6,0.4-1.3,0.6-2.1,0.6c-0.9,0-1.7-0.3-2.4-0.7l-2.9-1.6
		c-1.2-0.6-2.5-1.2-3.7-1.6c-1.6-0.5-3.2-0.7-4.8-0.7c-3.1,0-5.4,0.7-7,2c-1.5,1.4-2.4,3.3-2.3,5.4c0,1.3,0.5,2.6,1.4,3.6
		c1,1,2.2,1.9,3.6,2.5c1.7,0.7,3.4,1.4,5.1,1.9c1.9,0.6,3.9,1.2,5.9,1.9c2,0.7,4,1.5,5.9,2.5c1.9,0.9,3.6,2.2,5.1,3.6
		c1.5,1.5,2.8,3.4,3.6,5.4c1,2.4,1.4,5,1.4,7.6c0,3.2-0.5,6.4-1.7,9.4c-1.1,2.8-2.8,5.4-5,7.6c-2.3,2.2-5.1,4-8.1,5.1
		c-3.5,1.3-7.2,1.9-10.9,1.9c-2.3,0-4.6-0.2-6.8-0.7c-2.3-0.5-4.5-1.1-6.7-2c-2.1-0.8-4.2-1.8-6.1-3c-1.8-1.1-3.5-2.4-5-3.8l4.9-7.8
		c0.4-0.6,0.9-1.1,1.6-1.4c0.6-0.4,1.4-0.6,2.1-0.6c1.1,0,2.1,0.3,3,0.9c1,0.6,2.1,1.3,3.4,2.1c1.4,0.8,2.8,1.5,4.4,2.1
		c1.9,0.7,3.8,1,5.8,0.9c3,0,5.4-0.7,7-2c1.7-1.3,2.5-3.4,2.5-6.3c0.1-1.5-0.4-2.9-1.4-4.1c-1-1.1-2.2-2-3.6-2.6
		c-1.6-0.7-3.3-1.3-5.1-1.8c-1.9-0.5-3.8-1.1-5.9-1.8c-2-0.6-4-1.4-5.9-2.4c-1.9-0.9-3.6-2.2-5.1-3.7c-1.6-1.6-2.8-3.6-3.6-5.7
		c-1-2.7-1.5-5.6-1.4-8.4c0-2.7,0.6-5.4,1.6-7.9c1.1-2.6,2.7-4.9,4.8-6.8c2.2-2.1,4.9-3.7,7.7-4.8c3.4-1.3,6.9-1.9,10.5-1.8
		c2.2,0,4.3,0.2,6.4,0.5c2,0.3,4,0.8,5.9,1.5c1.8,0.6,3.6,1.5,5.2,2.4c1.6,0.9,3,2,4.4,3.2L370.3,42z"/>
	<path class="st0" d="M407,47.3c3.6,0,7.2,0.6,10.6,1.8c3.1,1.1,5.9,2.9,8.2,5.2c2.3,2.3,4.1,5.2,5.3,8.2c1.3,3.5,1.9,7.2,1.9,10.9
		c0.1,3.8-0.6,7.5-1.9,11c-1.2,3.1-3,5.9-5.3,8.3c-2.3,2.3-5.1,4.1-8.2,5.3c-3.4,1.3-7,1.9-10.6,1.9c-3.6,0-7.2-0.6-10.7-1.9
		c-3.1-1.2-5.9-3-8.3-5.3c-2.4-2.3-4.2-5.2-5.4-8.3c-1.3-3.5-1.9-7.3-1.9-11c-0.1-3.7,0.6-7.4,1.9-10.9c1.2-3.1,3-5.9,5.4-8.2
		c2.4-2.3,5.2-4.1,8.3-5.2C399.7,47.9,403.4,47.3,407,47.3z M407,88.6c3.5,0,6.1-1.2,7.8-3.7c1.7-2.5,2.5-6.3,2.5-11.3
		c0-5.1-0.8-8.8-2.5-11.2c-1.7-2.4-4.2-3.7-7.8-3.7c-3.6,0-6.2,1.2-7.9,3.7c-1.7,2.5-2.5,6.2-2.5,11.2c0,5.1,0.8,8.8,2.5,11.3
		C400.7,87.3,403.4,88.6,407,88.6z"/>
	<path class="st0" d="M491.7,58.6V84c0,1,0.3,2.1,0.9,2.9c0.6,0.8,1.5,1.2,2.5,1.2c0.5,0,0.9,0,1.4-0.2c0.3-0.1,0.7-0.2,1-0.4
		l0.8-0.4c0.3-0.1,0.6-0.2,0.9-0.2c0.4,0,0.8,0.1,1.1,0.3c0.3,0.3,0.6,0.6,0.9,1l4.6,7.2c-2,1.5-4.3,2.6-6.6,3.3
		c-2.5,0.7-5,1.1-7.6,1.1c-2.2,0-4.4-0.3-6.4-1.1c-3.6-1.3-6.3-4.1-7.6-7.7c-0.7-2-1-4.1-1-6.2V58.6h-18.2v40.5H443V58.6l-3.3-0.7
		c-1-0.2-2-0.6-2.8-1.2c-0.7-0.6-1.1-1.5-1.1-2.5v-6h7.2v-2.9c0-2.7,0.4-5.4,1.4-7.9c0.9-2.3,2.3-4.4,4-6.1c1.8-1.7,4-3.1,6.4-3.9
		c2.8-1,5.7-1.4,8.6-1.4c1.2,0,2.3,0.1,3.4,0.2c1.1,0.2,2.2,0.4,3.3,0.7l-0.3,7.4c0,0.9-0.5,1.7-1.3,2.1c-0.4,0.2-0.8,0.4-1.2,0.5
		c-0.4,0.1-0.9,0.1-1.3,0.1c-1.2,0-2.4,0.1-3.6,0.4c-1,0.2-1.9,0.7-2.6,1.4c-0.7,0.7-1.3,1.7-1.6,2.7c-0.4,1.3-0.6,2.8-0.5,4.2v2.4
		h19.5l3.1-12.5c0.4-1.6,1.5-2.4,3.3-2.4h8v14.9h12.6v10.4H491.7z"/>
	<path class="st0" d="M541.9,86c2,0,4.1-0.3,6-1.1c1.7-0.7,3.2-1.8,4.4-3.2c1.3-1.5,2.2-3.2,2.8-5c0.7-2.2,1-4.5,0.9-6.8V27.4h16.6
		v42.5c0,4.1-0.7,8.2-2.1,12.1c-1.4,3.6-3.4,6.8-6.1,9.5c-2.8,2.7-6.1,4.8-9.7,6.2c-8.3,3-17.4,3-25.7,0c-3.6-1.4-6.9-3.5-9.7-6.2
		c-2.7-2.7-4.8-5.9-6.1-9.5c-1.4-3.9-2.2-8-2.1-12.1V27.4h16.6v42.5c0,2.3,0.3,4.6,0.9,6.8c0.6,1.9,1.5,3.6,2.8,5.1
		c1.2,1.4,2.7,2.5,4.5,3.2C537.8,85.7,539.9,86,541.9,86z"/>
	<path class="st0" d="M596.3,53.6c1-0.9,2-1.8,3-2.6c1-0.8,2.2-1.5,3.4-2c1.2-0.6,2.6-1,3.9-1.3c1.5-0.3,3-0.5,4.6-0.5
		c2.5,0,5.1,0.4,7.4,1.5c2.1,0.9,3.9,2.3,5.4,4c1.5,1.8,2.7,3.9,3.3,6.2c0.8,2.5,1.2,5.1,1.2,7.8v32.4h-15.3V66.7
		c0.1-2.1-0.5-4.2-1.7-5.9c-1.3-1.4-3.1-2.2-5.1-2.1c-1.6,0-3.2,0.4-4.7,1.1c-1.6,0.8-3,1.7-4.3,2.9v36.4h-15.2v-51h9.4
		c1.7-0.1,3.3,0.9,3.7,2.6L596.3,53.6z"/>
	<path class="st0" d="M655.5,34.1c0,1.2-0.2,2.3-0.7,3.4c-0.5,1.1-1.2,2-2,2.8c-0.9,0.8-1.9,1.4-3,1.9c-1.1,0.5-2.4,0.7-3.6,0.7
		c-1.2,0-2.4-0.2-3.5-0.7c-1.1-0.4-2-1.1-2.9-1.9c-0.8-0.8-1.5-1.8-2-2.8c-0.5-1.1-0.7-2.2-0.7-3.4c0-1.2,0.2-2.4,0.7-3.5
		c0.5-1.1,1.1-2,2-2.8c0.8-0.8,1.8-1.5,2.9-1.9c1.1-0.5,2.3-0.7,3.5-0.7c1.2,0,2.5,0.2,3.6,0.7c1.1,0.4,2.1,1.1,2.9,1.9
		c0.8,0.8,1.5,1.8,2,2.8C655.3,31.7,655.5,32.9,655.5,34.1z M654,48.1v51h-15.3v-51L654,48.1z"/>
	<path class="st0" d="M347.5,129.2v18.2H372v12.8h-24.5v27.9h-16.8v-71.7h46.2v12.8L347.5,129.2z"/>
	<path class="st0" d="M403.7,136.3c3.6,0,7.2,0.6,10.6,1.8c3.1,1.1,5.9,2.9,8.2,5.2c2.3,2.3,4.1,5.2,5.3,8.2
		c1.3,3.5,1.9,7.2,1.9,10.9c0.1,3.8-0.6,7.5-1.9,11c-1.2,3.1-3,5.9-5.3,8.3c-2.3,2.3-5.1,4.1-8.2,5.3c-3.4,1.3-7,1.9-10.6,1.9
		c-3.6,0-7.2-0.6-10.7-1.9c-3.1-1.2-5.9-3-8.3-5.3c-2.4-2.4-4.2-5.2-5.4-8.3c-1.3-3.5-1.9-7.3-1.9-11c-0.1-3.7,0.6-7.4,1.9-10.9
		c1.2-3.1,3-5.9,5.4-8.2c2.4-2.3,5.2-4.1,8.3-5.2C396.4,136.9,400,136.3,403.7,136.3z M403.7,177.6c3.5,0,6.1-1.2,7.8-3.7
		c1.7-2.5,2.5-6.3,2.5-11.3c0-5.1-0.8-8.8-2.5-11.2s-4.3-3.7-7.8-3.7c-3.6,0-6.2,1.2-7.9,3.7c-1.7,2.5-2.5,6.2-2.5,11.2
		c0,5.1,0.8,8.8,2.5,11.3C397.4,176.3,400.1,177.6,403.7,177.6L403.7,177.6z"/>
	<path class="st0" d="M483.1,137.1v51h-9.5c-1.7,0.1-3.3-0.9-3.7-2.6l-0.9-2.9c-1,0.9-2,1.8-3.1,2.6c-1.1,0.8-2.2,1.4-3.4,2
		c-1.2,0.6-2.6,1-3.9,1.3c-1.5,0.3-3,0.5-4.6,0.5c-2.6,0.1-5.1-0.4-7.4-1.5c-2.1-0.9-4-2.3-5.4-4.1c-1.5-1.8-2.6-3.9-3.3-6.2
		c-0.8-2.5-1.2-5.1-1.1-7.8v-32.4h15.3v32.4c-0.1,2.1,0.5,4.2,1.7,5.9c1.3,1.4,3.1,2.2,5.1,2.1c1.6,0,3.2-0.4,4.7-1.1
		c1.5-0.8,3-1.7,4.3-2.9v-36.4H483.1z"/>
	<path class="st0" d="M507.5,142.6c1-0.9,2-1.8,3.1-2.6c1-0.8,2.2-1.5,3.4-2c1.2-0.6,2.6-1,3.9-1.3c1.5-0.3,3-0.5,4.6-0.5
		c2.5,0,5.1,0.4,7.4,1.5c2.1,0.9,3.9,2.3,5.4,4c1.5,1.8,2.7,3.9,3.3,6.2c0.8,2.5,1.2,5.1,1.1,7.8v32.4h-15.3v-32.4
		c0.1-2.1-0.5-4.2-1.7-5.8c-1.3-1.4-3.1-2.2-5.1-2.1c-1.6,0-3.2,0.4-4.7,1.1c-1.5,0.8-3,1.7-4.3,2.9v36.4h-15.3v-51h9.5
		c1.7-0.1,3.3,0.9,3.7,2.6L507.5,142.6z"/>
	<path class="st0" d="M595.8,114.5v73.7h-9.4c-1.7,0.1-3.3-0.9-3.7-2.6l-1.2-3.9c-1,1.1-2.1,2-3.2,2.9c-1.1,0.9-2.3,1.7-3.6,2.3
		c-1.3,0.7-2.7,1.2-4.2,1.5c-1.6,0.4-3.2,0.5-4.9,0.5c-2.6,0-5.1-0.6-7.4-1.8c-2.3-1.2-4.3-3-5.9-5.1c-1.8-2.5-3.1-5.3-3.9-8.2
		c-1-3.6-1.5-7.3-1.4-11c0-3.6,0.5-7.2,1.6-10.6c1-3.1,2.5-5.9,4.5-8.4c1.9-2.4,4.2-4.3,6.9-5.6c2.8-1.4,5.8-2,8.9-2
		c2.3-0.1,4.6,0.3,6.7,1.1c1.8,0.7,3.5,1.8,4.9,3.1v-25.9H595.8z M580.5,150.8c-1-1.2-2.3-2.1-3.7-2.7c-1.4-0.5-2.8-0.8-4.2-0.8
		c-1.3,0-2.7,0.3-3.9,0.8c-1.2,0.6-2.3,1.5-3.1,2.7c-1,1.5-1.7,3.1-2,4.8c-0.5,2.3-0.8,4.7-0.7,7.1c0,2.3,0.2,4.6,0.6,6.8
		c0.3,1.6,0.8,3.1,1.6,4.5c0.6,1,1.5,1.9,2.5,2.4c1,0.5,2.2,0.8,3.3,0.7c1,0,2-0.1,3-0.3c0.9-0.2,1.7-0.5,2.5-0.9
		c0.8-0.4,1.5-0.9,2.1-1.5c0.7-0.6,1.4-1.3,2-2.1L580.5,150.8z"/>
	<path class="st0" d="M605,144.2c3-2.7,6.5-4.7,10.3-6.1c3.9-1.4,8-2,12.1-2c2.9,0,5.7,0.5,8.3,1.5c2.4,0.9,4.5,2.4,6.3,4.2
		c1.7,1.8,3.1,4,4,6.4c0.9,2.6,1.4,5.3,1.4,8.1v31.9h-7c-1.1,0.1-2.2-0.1-3.3-0.6c-0.9-0.6-1.6-1.4-1.9-2.5l-1.1-2.8
		c-1.3,1.1-2.5,2-3.7,2.8c-1.2,0.8-2.4,1.5-3.7,2.1c-1.3,0.6-2.6,1-4,1.3c-1.6,0.3-3.2,0.4-4.7,0.4c-2.2,0-4.3-0.3-6.3-0.9
		c-1.8-0.5-3.4-1.5-4.9-2.7c-1.4-1.2-2.4-2.7-3.1-4.4c-0.8-1.9-1.1-4-1.1-6.1c0-2,0.5-3.9,1.4-5.6c1.1-2.1,2.8-3.9,4.8-5.2
		c2.8-1.8,5.9-3.1,9.2-3.9c4.7-1.1,9.6-1.7,14.5-1.7v-2.2c0-3-0.6-5.1-1.9-6.5c-1.4-1.4-3.3-2.1-5.2-2c-1.5,0-3,0.2-4.4,0.6
		c-1.1,0.4-2.1,0.8-3.1,1.3c-0.9,0.5-1.8,0.9-2.6,1.3c-1,0.4-2,0.6-3.1,0.6c-0.9,0-1.9-0.2-2.7-0.8c-0.7-0.5-1.3-1.1-1.8-1.9
		L605,144.2z M632.4,167.4c-2.5,0.1-5,0.3-7.5,0.8c-1.6,0.3-3.2,0.8-4.7,1.5c-1,0.4-1.8,1.1-2.4,2c-0.4,0.7-0.7,1.6-0.7,2.5
		c0,1.7,0.5,3,1.4,3.7c1.2,0.8,2.7,1.2,4.2,1.1c1.8,0,3.5-0.3,5.2-1c1.7-0.8,3.2-2,4.5-3.3L632.4,167.4z"/>
	<path class="st0" d="M711.4,188.2h-15.3v-40.5h-21.4V173c0,1,0.3,2.1,0.9,2.9c0.6,0.8,1.5,1.2,2.5,1.2c0.5,0,0.9,0,1.4-0.2
		c0.3-0.1,0.7-0.2,1-0.4l0.8-0.4c0.3-0.1,0.6-0.2,0.9-0.2c0.4,0,0.8,0.1,1.1,0.3c0.3,0.3,0.6,0.6,0.9,1l4.6,7.2
		c-2,1.5-4.3,2.6-6.6,3.3c-2.5,0.7-5,1.1-7.6,1.1c-2.2,0-4.4-0.3-6.4-1.1c-3.6-1.3-6.3-4.1-7.6-7.7c-0.7-2-1-4.1-1-6.2v-26.4h-4.3
		c-1.5,0-2.8-1.2-2.8-2.7c0-0.1,0-0.2,0-0.3v-6l8.1-1.6l3-12.4c0.4-1.6,1.5-2.4,3.3-2.4h8v14.9h36.6V188.2z M713.6,123.1
		c0,1.2-0.2,2.4-0.7,3.4c-0.5,1.1-1.2,2-2,2.8c-1.8,1.7-4.1,2.6-6.6,2.6c-1.2,0-2.4-0.2-3.5-0.7c-1.1-0.4-2-1.1-2.9-1.9
		c-0.8-0.8-1.5-1.8-2-2.8c-0.5-1.1-0.7-2.3-0.7-3.4c0-2.4,1-4.7,2.7-6.3c0.8-0.8,1.8-1.5,2.9-1.9c1.1-0.5,2.3-0.7,3.5-0.7
		c1.2,0,2.5,0.2,3.6,0.7c1.1,0.5,2.1,1.1,3,1.9c0.9,0.8,1.5,1.7,2,2.8C713.4,120.7,713.6,121.9,713.6,123.1z"/>
	<path class="st0" d="M745.6,136.3c3.6,0,7.2,0.6,10.6,1.8c3.1,1.1,5.9,2.9,8.2,5.2c2.3,2.3,4.1,5.2,5.3,8.2
		c1.3,3.5,1.9,7.2,1.9,10.9c0.1,3.8-0.6,7.5-1.9,11c-1.2,3.1-3,5.9-5.3,8.3c-2.3,2.3-5.1,4.1-8.2,5.3c-3.4,1.3-7,1.9-10.6,1.9
		c-3.6,0-7.2-0.6-10.7-1.9c-3.1-1.1-5.9-2.9-8.3-5.2c-2.4-2.4-4.2-5.2-5.4-8.3c-1.3-3.5-1.9-7.3-1.9-11c-0.1-3.7,0.6-7.4,1.9-10.9
		c1.2-3.1,3-5.9,5.4-8.2c2.4-2.3,5.2-4.1,8.3-5.2C738.4,136.9,742,136.3,745.6,136.3z M745.6,177.6c3.5,0,6.1-1.2,7.8-3.7
		c1.7-2.5,2.5-6.3,2.5-11.3c0-5.1-0.8-8.8-2.5-11.2c-1.7-2.4-4.2-3.7-7.8-3.7c-3.6,0-6.2,1.2-7.9,3.7s-2.5,6.2-2.5,11.2
		c0,5.1,0.8,8.8,2.5,11.3S742,177.6,745.6,177.6L745.6,177.6z"/>
	<path class="st0" d="M793.4,142.6c1-0.9,2-1.8,3.1-2.6c1-0.8,2.2-1.5,3.4-2c1.2-0.6,2.6-1,3.9-1.3c1.5-0.3,3-0.5,4.6-0.5
		c2.5,0,5.1,0.4,7.4,1.5c2.1,0.9,3.9,2.3,5.4,4c1.5,1.8,2.7,3.9,3.3,6.2c0.8,2.5,1.2,5.1,1.1,7.8v32.4h-15.3v-32.4
		c0.1-2.1-0.5-4.2-1.7-5.8c-1.3-1.4-3.1-2.2-5.1-2.1c-1.6,0-3.2,0.4-4.7,1.1c-1.5,0.8-3,1.7-4.3,2.9v36.4h-15.3v-51h9.4
		c1.7-0.1,3.3,0.9,3.7,2.6L793.4,142.6z"/>
</g>
</svg>
