<?xml version="1.0" encoding="utf-8"?>
<!-- Generator: Adobe Illustrator 22.0.1, SVG Export Plug-In . SVG Version: 6.00 Build 0)  -->
<svg version="1.1" id="Layer_1" xmlns="http://www.w3.org/2000/svg" xmlns:xlink="http://www.w3.org/1999/xlink" x="0px" y="0px"
	 viewBox="0 0 195.6 65.9" style="enable-background:new 0 0 195.6 65.9;" xml:space="preserve">
<style type="text/css">
	.st0{fill:#FFFFFF;}
	.st1{fill:#FFFFFF;}
</style>
<g>
	<g>
		<path class="st0" d="M43.8,0L0,23.1l16.9,8.7v21l26.9,13.1l27.1-13.1v-21l16.5-8.6L43.8,0z M61.9,47.7l-18.1,9l-17.9-9V35.9l4,2
			l13.9,7.3L57.9,38l4-2V47.7z M56.5,29.5c-2.3-4.8-7.3-8.1-13-8.1s-10.7,3.3-13,8.1L18,23.1L43.8,9l25,14.1L56.5,29.5z"/>
		<path class="st0" d="M43,14.1l-1,2.1l-1.1,2.3c-0.2,0.4,0.1,0.8,0.5,0.8h2.1h2.1c0.4,0,0.7-0.4,0.5-0.8L45,16.2l-1-2.1
			C43.8,13.7,43.2,13.7,43,14.1z"/>
		<path class="st0" d="M48.6,19.9l1.9,0.9l1.9,0.9c0.4,0.2,0.8-0.1,0.8-0.5v-2.5v-2.3c0-0.4-0.6-0.7-0.9-0.4l-1.8,1.4l-2,1.6
			C48.2,19.3,48.2,19.7,48.6,19.9z"/>
		<path class="st0" d="M56.1,25.2l1.5,1.5c0.3,0.3,0.7,0.3,0.9-0.1l1-2.3l0.9-2.1c0.2-0.4-0.2-0.8-0.6-0.7l-2.2,0.6l-2.5,0.6
			c-0.4,0.1-0.6,0.6-0.3,0.9L56.1,25.2z"/>
		<path class="st0" d="M36.6,17.4L34.8,16c-0.4-0.3-0.9,0-0.9,0.4v2.3v2.5c0,0.4,0.4,0.7,0.7,0.5l1.9-0.9l2-0.9
			c0.3-0.2,0.4-0.7,0.1-0.9L36.6,17.4z"/>
		<path class="st0" d="M32,22.8l-2.5-0.6l-2.2-0.6c-0.4-0.1-0.8,0.3-0.6,0.7l0.9,2.1l1.1,2.3c0.2,0.3,0.6,0.4,0.9,0.1l1.3-1.6
			l1.4-1.5C32.5,23.4,32.4,22.9,32,22.8z"/>
	</g>
	<path class="st1" d="M111,14.6c-0.1,0.2-0.3,0.4-0.4,0.5c-0.2,0.1-0.3,0.2-0.6,0.2c-0.2,0-0.4-0.1-0.7-0.2
		c-0.2-0.1-0.5-0.3-0.8-0.4c-0.3-0.2-0.7-0.3-1.1-0.4s-0.8-0.2-1.4-0.2c-0.9,0-1.5,0.2-2,0.6c-0.4,0.4-0.6,0.9-0.6,1.5
		c0,0.4,0.1,0.7,0.4,1s0.6,0.5,1,0.7s0.9,0.4,1.4,0.5c0.5,0.2,1.1,0.3,1.6,0.5c0.6,0.2,1.1,0.4,1.6,0.7c0.5,0.3,1,0.6,1.4,1
		s0.8,0.9,1,1.5c0.3,0.6,0.4,1.3,0.4,2.1c0,0.9-0.2,1.8-0.5,2.6c-0.3,0.8-0.8,1.5-1.4,2.1s-1.4,1.1-2.3,1.4
		c-0.9,0.3-1.9,0.5-3.1,0.5c-0.6,0-1.3-0.1-1.9-0.2c-0.6-0.1-1.3-0.3-1.9-0.5s-1.2-0.5-1.7-0.8s-1-0.7-1.4-1.1l1.4-2.2
		c0.1-0.2,0.3-0.3,0.4-0.4c0.2-0.1,0.4-0.2,0.6-0.2c0.3,0,0.6,0.1,0.8,0.3c0.3,0.2,0.6,0.4,1,0.6s0.8,0.4,1.2,0.6
		c0.5,0.2,1,0.3,1.6,0.3c0.8,0,1.5-0.2,2-0.6s0.7-1,0.7-1.8c0-0.5-0.1-0.9-0.4-1.1c-0.3-0.3-0.6-0.5-1-0.7s-0.9-0.4-1.4-0.5
		s-1.1-0.3-1.6-0.5c-0.6-0.2-1.1-0.4-1.6-0.7c-0.5-0.3-1-0.6-1.4-1s-0.8-1-1-1.6c-0.3-0.6-0.4-1.4-0.4-2.4c0-0.8,0.2-1.5,0.5-2.2
		c0.3-0.7,0.7-1.4,1.3-1.9c0.6-0.6,1.3-1,2.2-1.3c0.9-0.3,1.8-0.5,2.9-0.5c0.6,0,1.2,0,1.8,0.1c0.6,0.1,1.1,0.2,1.7,0.4
		c0.5,0.2,1,0.4,1.5,0.7s0.9,0.6,1.2,0.9L111,14.6z"/>
	<path class="st1" d="M121.3,16.1c1.1,0,2.1,0.2,3,0.5s1.7,0.8,2.3,1.5c0.6,0.6,1.1,1.4,1.5,2.3c0.4,0.9,0.5,1.9,0.5,3.1
		c0,1.1-0.2,2.2-0.5,3.1c-0.4,0.9-0.9,1.7-1.5,2.3c-0.6,0.6-1.4,1.1-2.3,1.5c-0.9,0.3-1.9,0.5-3,0.5s-2.1-0.2-3-0.5
		s-1.7-0.8-2.3-1.5c-0.6-0.6-1.1-1.4-1.5-2.3s-0.5-1.9-0.5-3.1c0-1.1,0.2-2.1,0.5-3.1c0.4-0.9,0.9-1.7,1.5-2.3
		c0.6-0.6,1.4-1.1,2.3-1.5C119.2,16.3,120.2,16.1,121.3,16.1z M121.3,27.7c1,0,1.7-0.3,2.2-1s0.7-1.7,0.7-3.2c0-1.4-0.2-2.5-0.7-3.2
		s-1.2-1-2.2-1s-1.8,0.3-2.2,1c-0.5,0.7-0.7,1.7-0.7,3.2c0,1.4,0.2,2.5,0.7,3.2C119.6,27.3,120.3,27.7,121.3,27.7z"/>
	<path class="st1" d="M145,19.3v7.1c0,0.3,0.1,0.6,0.2,0.8c0.2,0.2,0.4,0.3,0.7,0.3c0.2,0,0.3,0,0.4,0c0.1,0,0.2-0.1,0.3-0.1
		s0.2-0.1,0.2-0.1c0.1,0,0.1,0,0.2,0c0.1,0,0.2,0,0.3,0.1s0.2,0.2,0.2,0.3l1.3,2c-0.6,0.4-1.2,0.7-1.9,0.9s-1.4,0.3-2.1,0.3
		c-0.7,0-1.3-0.1-1.8-0.3s-1-0.5-1.3-0.8c-0.4-0.4-0.6-0.8-0.8-1.3s-0.3-1.1-0.3-1.7v-7.4h-5.1v11.2h-4.3V19.3l-0.9-0.2
		c-0.3-0.1-0.6-0.2-0.8-0.3c-0.2-0.2-0.3-0.4-0.3-0.7v-1.7h2v-0.8c0-0.8,0.1-1.6,0.4-2.2c0.3-0.7,0.6-1.2,1.1-1.7s1.1-0.8,1.8-1.1
		s1.5-0.4,2.4-0.4c0.3,0,0.7,0,1,0.1c0.3,0,0.6,0.1,0.9,0.2l-0.1,2.1c0,0.1,0,0.3-0.1,0.4c-0.1,0.1-0.1,0.2-0.3,0.2
		c-0.1,0.1-0.2,0.1-0.3,0.1s-0.2,0-0.4,0c-0.4,0-0.7,0-1,0.1s-0.5,0.2-0.7,0.4s-0.3,0.4-0.4,0.7c-0.1,0.3-0.2,0.7-0.2,1.2v0.7h5.5
		l0.9-3.5c0.1-0.4,0.4-0.7,0.9-0.7h2.2v4.2h3.5v2.9C148.3,19.3,145,19.3,145,19.3z"/>
	<path class="st1" d="M159.1,26.9c0.6,0,1.2-0.1,1.7-0.3c0.5-0.2,0.9-0.5,1.2-0.9s0.6-0.9,0.8-1.4c0.2-0.6,0.3-1.2,0.3-1.9V10.5h4.7
		v11.9c0,1.2-0.2,2.4-0.6,3.4c-0.4,1-1,1.9-1.7,2.7c-0.7,0.7-1.7,1.3-2.7,1.7c-1.1,0.4-2.3,0.6-3.6,0.6s-2.5-0.2-3.6-0.6
		c-1.1-0.4-2-1-2.7-1.7s-1.3-1.6-1.7-2.7s-0.6-2.2-0.6-3.4V10.5h4.7v11.9c0,0.7,0.1,1.3,0.3,1.9s0.4,1,0.8,1.4
		c0.3,0.4,0.8,0.7,1.2,0.9C157.9,26.8,158.5,26.9,159.1,26.9z"/>
	<path class="st1" d="M174.4,17.9c0.3-0.3,0.6-0.5,0.9-0.7s0.6-0.4,0.9-0.6c0.3-0.2,0.7-0.3,1.1-0.4c0.4-0.1,0.8-0.1,1.3-0.1
		c0.8,0,1.5,0.1,2.1,0.4s1.1,0.6,1.5,1.1s0.7,1.1,0.9,1.7c0.2,0.7,0.3,1.4,0.3,2.2v9.1h-4.3v-9.1c0-0.7-0.2-1.2-0.5-1.6
		s-0.8-0.6-1.4-0.6c-0.5,0-0.9,0.1-1.3,0.3c-0.4,0.2-0.8,0.5-1.2,0.8v10.2h-4.3V16.3h2.6c0.5,0,0.9,0.2,1,0.7L174.4,17.9z"/>
	<path class="st1" d="M190.9,12.4c0,0.3-0.1,0.7-0.2,1c-0.1,0.3-0.3,0.6-0.6,0.8c-0.2,0.2-0.5,0.4-0.8,0.5s-0.7,0.2-1,0.2
		c-0.4,0-0.7-0.1-1-0.2s-0.6-0.3-0.8-0.5s-0.4-0.5-0.6-0.8c-0.1-0.3-0.2-0.6-0.2-1c0-0.3,0.1-0.7,0.2-1c0.1-0.3,0.3-0.6,0.6-0.8
		c0.2-0.2,0.5-0.4,0.8-0.5s0.6-0.2,1-0.2s0.7,0.1,1,0.2s0.6,0.3,0.8,0.5s0.4,0.5,0.6,0.8C190.9,11.7,190.9,12.1,190.9,12.4z
		 M190.5,16.3v14.3h-4.3V16.3H190.5z"/>
	<path class="st1" d="M111,39.5c-0.1,0.2-0.3,0.4-0.4,0.5c-0.2,0.1-0.3,0.2-0.6,0.2c-0.2,0-0.4-0.1-0.7-0.2
		c-0.2-0.1-0.5-0.3-0.8-0.4c-0.3-0.2-0.7-0.3-1.1-0.4c-0.4-0.1-0.8-0.2-1.4-0.2c-0.9,0-1.5,0.2-2,0.6c-0.4,0.4-0.6,0.9-0.6,1.5
		c0,0.4,0.1,0.7,0.4,1s0.6,0.5,1,0.7s0.9,0.4,1.4,0.5c0.5,0.2,1.1,0.3,1.6,0.5c0.6,0.2,1.1,0.4,1.6,0.7s1,0.6,1.4,1s0.8,0.9,1,1.5
		c0.3,0.6,0.4,1.3,0.4,2.1c0,0.9-0.2,1.8-0.5,2.6s-0.8,1.5-1.4,2.1s-1.4,1.1-2.3,1.4c-0.9,0.3-1.9,0.5-3.1,0.5
		c-0.6,0-1.3-0.1-1.9-0.2c-0.6-0.1-1.3-0.3-1.9-0.5s-1.2-0.5-1.7-0.8s-1-0.7-1.4-1.1l1.4-2.2c0.1-0.2,0.3-0.3,0.4-0.4
		c0.2-0.1,0.4-0.2,0.6-0.2c0.3,0,0.6,0.1,0.8,0.3c0.3,0.2,0.6,0.4,1,0.6c0.4,0.2,0.8,0.4,1.2,0.6c0.5,0.2,1,0.3,1.6,0.3
		c0.8,0,1.5-0.2,2-0.6c0.5-0.4,0.7-1,0.7-1.8c0-0.5-0.1-0.9-0.4-1.1c-0.3-0.3-0.6-0.5-1-0.7s-0.9-0.4-1.4-0.5s-1.1-0.3-1.6-0.5
		c-0.6-0.2-1.1-0.4-1.6-0.7s-1-0.6-1.4-1s-0.8-1-1-1.6c-0.3-0.6-0.4-1.4-0.4-2.4c0-0.8,0.2-1.5,0.5-2.2s0.7-1.4,1.3-1.9
		c0.6-0.6,1.3-1,2.2-1.3c0.9-0.3,1.8-0.5,2.9-0.5c0.6,0,1.2,0,1.8,0.1c0.6,0.1,1.1,0.2,1.7,0.4c0.5,0.2,1,0.4,1.5,0.7
		s0.9,0.6,1.2,0.9L111,39.5z"/>
	<path class="st1" d="M127.6,41.2l-5.5,14.3h-3.9l-5.5-14.3h3.6c0.3,0,0.6,0.1,0.8,0.2c0.2,0.1,0.3,0.3,0.4,0.5l2,6.4
		c0.2,0.5,0.3,1,0.5,1.5c0.1,0.5,0.3,1,0.4,1.5c0.2-1,0.5-2,0.8-3l2.1-6.4c0.1-0.2,0.2-0.4,0.4-0.5c0.2-0.1,0.4-0.2,0.7-0.2H127.6z"
		/>
	<path class="st1" d="M132,49.1c0.1,1.2,0.5,2.1,1.1,2.6s1.3,0.8,2.3,0.8c0.5,0,0.9-0.1,1.3-0.2c0.4-0.1,0.7-0.3,1-0.4
		c0.3-0.1,0.5-0.3,0.8-0.4c0.2-0.1,0.5-0.2,0.7-0.2c0.3,0,0.6,0.1,0.8,0.4l1.2,1.5c-0.4,0.5-0.9,0.9-1.4,1.2s-1,0.6-1.6,0.7
		c-0.5,0.2-1.1,0.3-1.6,0.4c-0.5,0.1-1.1,0.1-1.5,0.1c-1,0-1.9-0.2-2.8-0.5c-0.9-0.3-1.6-0.8-2.3-1.5c-0.7-0.6-1.2-1.4-1.6-2.4
		c-0.4-1-0.6-2.1-0.6-3.3c0-1,0.2-1.9,0.5-2.7c0.3-0.9,0.8-1.6,1.4-2.2c0.6-0.6,1.4-1.2,2.2-1.5c0.9-0.4,1.9-0.6,2.9-0.6
		c0.9,0,1.8,0.1,2.6,0.4c0.8,0.3,1.5,0.7,2,1.3c0.6,0.6,1,1.2,1.3,2.1c0.3,0.8,0.5,1.7,0.5,2.8c0,0.3,0,0.6,0,0.8s-0.1,0.4-0.2,0.5
		c-0.1,0.1-0.2,0.2-0.3,0.2s-0.3,0.1-0.5,0.1C140.2,49.1,132,49.1,132,49.1z M137.4,46.6c0-0.3,0-0.7-0.1-1s-0.2-0.6-0.4-0.9
		c-0.2-0.3-0.5-0.5-0.8-0.6c-0.3-0.2-0.7-0.2-1.2-0.2c-0.8,0-1.4,0.2-1.9,0.7s-0.8,1.1-0.9,2H137.4z"/>
	<path class="st1" d="M148.3,55.7c-0.7,0-1.3-0.1-1.8-0.3s-1-0.5-1.3-0.8c-0.4-0.4-0.6-0.8-0.8-1.3s-0.3-1.1-0.3-1.7v-7.4h-1.2
		c-0.2,0-0.4-0.1-0.6-0.2c-0.2-0.1-0.2-0.4-0.2-0.6v-1.8l2.3-0.4l0.8-3.5c0.1-0.4,0.4-0.7,0.9-0.7h2.2v4.2h3.5v2.9h-3.5v7.1
		c0,0.3,0.1,0.6,0.2,0.8c0.2,0.2,0.4,0.3,0.7,0.3c0.2,0,0.3,0,0.4,0c0.1,0,0.2-0.1,0.3-0.1s0.2-0.1,0.2-0.1c0.1,0,0.1,0,0.2,0
		c0.1,0,0.2,0,0.3,0.1s0.2,0.2,0.2,0.3l1.3,2c-0.6,0.4-1.2,0.7-1.9,0.9C149.7,55.6,149,55.7,148.3,55.7z"/>
	<path class="st1" d="M158,34.8v20.6h-4.3V34.8H158z"/>
	<path class="st1" d="M165.7,37.2c0,0.3-0.1,0.7-0.2,1c-0.1,0.3-0.3,0.6-0.6,0.8c-0.2,0.2-0.5,0.4-0.8,0.5s-0.7,0.2-1,0.2
		c-0.4,0-0.7-0.1-1-0.2c-0.3-0.1-0.6-0.3-0.8-0.5s-0.4-0.5-0.6-0.8c-0.1-0.3-0.2-0.6-0.2-1c0-0.3,0.1-0.7,0.2-1
		c0.1-0.3,0.3-0.6,0.6-0.8c0.2-0.2,0.5-0.4,0.8-0.5s0.6-0.2,1-0.2s0.7,0.1,1,0.2c0.3,0.1,0.6,0.3,0.8,0.5s0.4,0.5,0.6,0.8
		C165.7,36.6,165.7,36.9,165.7,37.2z M165.3,41.2v14.3H161V41.2H165.3z"/>
	<path class="st1" d="M172.2,42.7c0.3-0.3,0.6-0.5,0.9-0.7s0.6-0.4,0.9-0.6c0.3-0.2,0.7-0.3,1.1-0.4c0.4-0.1,0.8-0.1,1.3-0.1
		c0.8,0,1.5,0.1,2.1,0.4c0.6,0.3,1.1,0.6,1.5,1.1s0.7,1.1,0.9,1.7c0.2,0.7,0.3,1.4,0.3,2.2v9.1h-4.3v-9.1c0-0.7-0.2-1.2-0.5-1.6
		c-0.3-0.4-0.8-0.6-1.4-0.6c-0.5,0-0.9,0.1-1.3,0.3c-0.4,0.2-0.8,0.5-1.2,0.8v10.2h-4.3V41.2h2.6c0.5,0,0.9,0.2,1,0.7L172.2,42.7z"
		/>
	<path class="st1" d="M183.7,43.1c0.9-0.8,1.8-1.3,2.9-1.7c1.1-0.4,2.2-0.6,3.4-0.6c0.9,0,1.6,0.1,2.3,0.4c0.7,0.3,1.3,0.7,1.8,1.2
		s0.9,1.1,1.1,1.8c0.3,0.7,0.4,1.4,0.4,2.3v8.9h-2c-0.4,0-0.7-0.1-0.9-0.2c-0.2-0.1-0.4-0.3-0.5-0.7l-0.3-0.8
		c-0.4,0.3-0.7,0.6-1,0.8s-0.7,0.4-1,0.6c-0.4,0.2-0.7,0.3-1.1,0.4c-0.4,0.1-0.8,0.1-1.3,0.1c-0.7,0-1.2-0.1-1.8-0.3
		c-0.5-0.2-1-0.4-1.4-0.8c-0.4-0.3-0.7-0.7-0.9-1.2s-0.3-1.1-0.3-1.7c0-0.5,0.1-1,0.4-1.6c0.3-0.5,0.7-1,1.3-1.4s1.5-0.8,2.6-1.1
		s2.4-0.5,4.1-0.5v-0.6c0-0.8-0.2-1.4-0.5-1.8c-0.3-0.4-0.8-0.6-1.5-0.6c-0.5,0-0.9,0.1-1.2,0.2c-0.3,0.1-0.6,0.2-0.9,0.4
		c-0.3,0.1-0.5,0.3-0.7,0.4c-0.2,0.1-0.5,0.2-0.9,0.2c-0.3,0-0.5-0.1-0.7-0.2c-0.2-0.1-0.4-0.3-0.5-0.5L183.7,43.1z M191.4,49.6
		c-0.9,0-1.6,0.1-2.1,0.2c-0.6,0.1-1,0.2-1.3,0.4s-0.5,0.4-0.7,0.6c-0.1,0.2-0.2,0.4-0.2,0.7c0,0.5,0.1,0.8,0.4,1
		c0.3,0.2,0.7,0.3,1.2,0.3c0.6,0,1-0.1,1.4-0.3s0.8-0.5,1.3-0.9L191.4,49.6L191.4,49.6z"/>
</g>
</svg>
