<?xml version="1.0" encoding="utf-8"?>
<!-- Generator: Adobe Illustrator 20.1.0, SVG Export Plug-In . SVG Version: 6.00 Build 0)  -->
<svg version="1.1" id="Layer_1" xmlns="http://www.w3.org/2000/svg" xmlns:xlink="http://www.w3.org/1999/xlink" x="0px" y="0px"
	 viewBox="0 0 653.1 805.7" style="enable-background:new 0 0 653.1 805.7;" xml:space="preserve">
<style type="text/css">
	.st0{enable-background:new    ;}
	.st1{fill:#FFFFFF;}
</style>
<g id="Layer_1_1_">
	<title>SoftwareUniveristy_Logo</title>
	<g id="Layer_2">
		<g id="Layer_1-2">
			<g class="st0">
				<path class="st1" d="M103.7,544.9c-0.7,1.1-1.4,2-2.2,2.5c-0.8,0.6-1.8,0.8-3,0.8c-1.1,0-2.2-0.3-3.5-1
					c-1.2-0.7-2.6-1.4-4.2-2.3c-1.6-0.8-3.4-1.6-5.4-2.3c-2-0.7-4.3-1-6.9-1c-4.4,0-7.8,0.9-9.9,2.8c-2.2,1.9-3.3,4.5-3.3,7.7
					c0,2.1,0.7,3.8,2,5.1c1.3,1.4,3,2.5,5.2,3.5c2.1,1,4.6,1.9,7.3,2.7c2.7,0.8,5.5,1.7,8.4,2.7c2.9,1,5.7,2.2,8.4,3.5
					c2.7,1.4,5.2,3.1,7.3,5.2c2.1,2.1,3.8,4.7,5.2,7.7c1.3,3,2,6.7,2,10.9c0,4.7-0.8,9.1-2.5,13.3c-1.6,4.1-4,7.7-7.1,10.8
					c-3.1,3.1-6.9,5.5-11.5,7.2s-9.7,2.6-15.5,2.6c-3.2,0-6.4-0.3-9.7-1c-3.3-0.7-6.5-1.6-9.6-2.8c-3.1-1.2-6-2.6-8.7-4.2
					c-2.7-1.6-5.1-3.5-7.1-5.5l7-11.1c0.6-0.8,1.3-1.5,2.2-2c0.9-0.5,1.9-0.8,3-0.8c1.4,0,2.8,0.4,4.2,1.3c1.4,0.9,3,1.9,4.8,2.9
					c1.8,1.1,3.9,2.1,6.2,2.9c2.3,0.9,5.1,1.3,8.3,1.3c4.3,0,7.7-0.9,10-2.8c2.4-1.9,3.6-4.9,3.6-9c0-2.4-0.7-4.3-2-5.8
					c-1.3-1.5-3-2.7-5.2-3.7c-2.1-1-4.6-1.8-7.3-2.6c-2.7-0.7-5.5-1.6-8.4-2.5c-2.9-0.9-5.6-2-8.4-3.4c-2.7-1.3-5.1-3.1-7.3-5.3
					c-2.1-2.2-3.8-4.9-5.2-8.1c-1.3-3.3-2-7.3-2-12c0-3.8,0.8-7.6,2.3-11.2c1.5-3.7,3.8-6.9,6.8-9.8c3-2.9,6.7-5.1,11-6.8
					c4.4-1.7,9.3-2.6,15-2.6c3.1,0,6.2,0.2,9.2,0.7c3,0.5,5.8,1.2,8.5,2.2c2.7,1,5.2,2.1,7.5,3.4c2.3,1.3,4.4,2.8,6.2,4.5
					L103.7,544.9z"/>
			</g>
			<g class="st0">
				<path class="st1" d="M156,552.5c5.5,0,10.6,0.9,15.1,2.6c4.5,1.7,8.4,4.2,11.7,7.4c3.3,3.2,5.8,7.1,7.6,11.8
					c1.8,4.6,2.7,9.8,2.7,15.5c0,5.8-0.9,11-2.7,15.7c-1.8,4.7-4.3,8.6-7.6,11.9c-3.3,3.3-7.1,5.8-11.7,7.5
					c-4.5,1.8-9.6,2.6-15.1,2.6c-5.6,0-10.6-0.9-15.2-2.6s-8.5-4.3-11.8-7.5c-3.3-3.3-5.8-7.2-7.7-11.9c-1.8-4.7-2.7-9.9-2.7-15.7
					c0-5.8,0.9-10.9,2.7-15.5c1.8-4.6,4.4-8.5,7.7-11.8s7.2-5.7,11.8-7.4C145.4,553.4,150.4,552.5,156,552.5z M156,611.4
					c5,0,8.7-1.8,11.1-5.3c2.4-3.5,3.5-8.9,3.5-16.1c0-7.2-1.2-12.6-3.5-16.1c-2.4-3.5-6-5.3-11.1-5.3c-5.1,0-8.9,1.8-11.3,5.3
					c-2.4,3.5-3.6,8.9-3.6,16.1c0,7.2,1.2,12.6,3.6,16.1C147.1,609.6,150.9,611.4,156,611.4z"/>
			</g>
			<g class="st0">
				<path class="st1" d="M276.8,568.7v36.1c0,1.7,0.4,3.1,1.2,4.2c0.8,1.1,2,1.6,3.5,1.6c0.8,0,1.5-0.1,2-0.2c0.5-0.2,1-0.4,1.4-0.6
					c0.4-0.2,0.8-0.4,1.1-0.6s0.8-0.2,1.2-0.2c0.7,0,1.2,0.2,1.6,0.5c0.4,0.3,0.8,0.8,1.2,1.4l6.6,10.3c-2.8,2.1-6,3.7-9.5,4.7
					c-3.5,1.1-7.1,1.6-10.9,1.6c-3.5,0-6.5-0.5-9.2-1.5c-2.6-1-4.9-2.4-6.7-4.3c-1.8-1.8-3.2-4.1-4.1-6.7c-0.9-2.6-1.4-5.5-1.4-8.8
					v-37.6h-25.9v57.8h-21.8v-57.8l-4.8-1c-1.6-0.4-3-1-4-1.8c-1-0.8-1.5-2-1.5-3.5v-8.6h10.2v-4.1c0-4.2,0.7-7.9,2-11.3
					s3.3-6.2,5.8-8.6c2.5-2.4,5.6-4.2,9.2-5.5c3.6-1.3,7.7-2,12.3-2c1.8,0,3.4,0.1,4.9,0.3c1.5,0.2,3.1,0.5,4.7,1l-0.4,10.6
					c0,0.7-0.2,1.4-0.6,1.9c-0.3,0.5-0.8,0.9-1.3,1.2c-0.5,0.3-1.1,0.5-1.7,0.7c-0.6,0.1-1.2,0.2-1.8,0.2c-1.9,0-3.6,0.2-5.1,0.6
					c-1.5,0.4-2.7,1-3.8,2c-1,1-1.8,2.2-2.3,3.8c-0.5,1.6-0.8,3.5-0.8,5.9v3.4h27.9l4.4-17.9c0.6-2.2,2.2-3.4,4.8-3.4h11.4v21.3h18
					v14.9H276.8z"/>
			</g>
			<g class="st0">
				<path class="st1" d="M411.4,553.6l-22.6,72.8h-17.7c-0.9,0-1.7-0.3-2.4-0.8c-0.7-0.6-1.2-1.5-1.5-2.8l-10.4-36.3
					c-0.5-1.6-1-3.3-1.4-4.8c-0.4-1.6-0.8-3.2-1.1-4.8c-0.3,1.6-0.7,3.3-1.1,4.9c-0.4,1.6-0.9,3.3-1.4,4.9l-10.5,36.1
					c-0.7,2.4-2.2,3.6-4.6,3.6h-16.8l-22.6-72.8h17.4c1.5,0,2.8,0.4,3.9,1.1c1.1,0.7,1.8,1.6,2.1,2.7l7.3,32.6
					c0.6,2.5,1.1,4.9,1.6,7.2c0.5,2.3,0.9,4.6,1.3,7c0.6-2.3,1.3-4.7,1.9-7c0.7-2.3,1.4-4.7,2.2-7.2l9.1-32.7c0.4-1.1,1.1-2,2.1-2.7
					c1-0.7,2.2-1.1,3.7-1.1h9.7c1.5,0,2.8,0.4,3.9,1.1c1.1,0.7,1.8,1.6,2.1,2.7l8.7,32.7c0.7,2.5,1.4,4.9,2.1,7.2
					c0.7,2.3,1.3,4.7,1.9,7.1c0.4-2.3,0.8-4.7,1.3-7s1.1-4.8,1.8-7.3l7.7-32.6c0.4-1.1,1.1-2,2.1-2.7c1-0.7,2.2-1.1,3.6-1.1H411.4z"
					/>
			</g>
			<g class="st0">
				<path class="st1" d="M416.4,563.7c4.4-3.9,9.3-6.8,14.6-8.7c5.4-1.9,11.1-2.8,17.2-2.8c4.4,0,8.4,0.7,11.9,2.1
					c3.5,1.4,6.5,3.4,9,6c2.5,2.6,4.3,5.6,5.7,9.1c1.3,3.5,2,7.3,2,11.5v45.5h-10c-2.1,0-3.6-0.3-4.7-0.8s-1.9-1.7-2.6-3.5l-1.5-4
					c-1.8,1.5-3.6,2.9-5.3,4.1s-3.4,2.2-5.2,3c-1.8,0.8-3.7,1.4-5.8,1.8c-2,0.4-4.3,0.6-6.8,0.6c-3.3,0-6.3-0.4-9.1-1.3
					c-2.7-0.9-5-2.1-6.9-3.8c-1.9-1.7-3.4-3.8-4.4-6.3c-1-2.5-1.5-5.4-1.5-8.7c0-2.6,0.7-5.3,2-8c1.3-2.7,3.6-5.1,6.8-7.4
					c3.2-2.2,7.6-4.1,13.1-5.6c5.5-1.5,12.4-2.3,20.7-2.5v-3.1c0-4.3-0.9-7.3-2.6-9.2c-1.8-1.9-4.2-2.8-7.5-2.8
					c-2.6,0-4.7,0.3-6.3,0.8c-1.6,0.6-3.1,1.2-4.4,1.9c-1.3,0.7-2.5,1.3-3.8,1.9s-2.7,0.8-4.4,0.8c-1.5,0-2.8-0.4-3.8-1.1
					c-1-0.7-1.9-1.6-2.5-2.7L416.4,563.7z M455.6,596.8c-4.4,0.2-7.9,0.6-10.7,1.1s-5,1.3-6.7,2.1c-1.6,0.8-2.8,1.8-3.4,2.9
					c-0.6,1.1-0.9,2.2-0.9,3.5c0,2.5,0.7,4.2,2,5.2c1.4,1,3.3,1.5,6,1.5c2.8,0,5.3-0.5,7.4-1.5c2.1-1,4.2-2.6,6.4-4.8V596.8z"/>
			</g>
			<g class="st0">
				<path class="st1" d="M511,564.9c2.2-3.9,4.8-7,7.8-9.3c2.9-2.2,6.3-3.4,10.1-3.4c3.3,0,5.9,0.8,8,2.3l-1.4,16
					c-0.2,1-0.6,1.7-1.2,2.1c-0.5,0.4-1.3,0.6-2.2,0.6c-0.4,0-0.9,0-1.5-0.1c-0.6,0-1.2-0.1-1.9-0.2c-0.7-0.1-1.3-0.1-2-0.2
					c-0.7-0.1-1.3-0.1-1.9-0.1c-3.2,0-5.7,0.8-7.6,2.5c-1.9,1.7-3.5,4-4.8,7v44.2h-21.8v-72.8h12.9c1.1,0,2,0.1,2.7,0.3
					c0.7,0.2,1.3,0.5,1.8,0.9c0.5,0.4,0.9,0.9,1.1,1.6c0.3,0.7,0.5,1.5,0.7,2.4L511,564.9z"/>
			</g>
			<g class="st0">
				<path class="st1" d="M560.9,593.9c0.7,6.1,2.5,10.5,5.5,13.2c3,2.7,6.9,4.1,11.6,4.1c2.5,0,4.7-0.3,6.5-0.9
					c1.8-0.6,3.5-1.3,4.9-2c1.4-0.7,2.7-1.4,3.9-2c1.2-0.6,2.4-0.9,3.8-0.9c1.7,0,3,0.6,3.9,1.9l6.3,7.8c-2.2,2.6-4.7,4.7-7.3,6.3
					s-5.3,2.9-8,3.8c-2.7,0.9-5.5,1.5-8.2,1.9s-5.3,0.5-7.8,0.5c-5.1,0-9.9-0.8-14.4-2.5c-4.5-1.7-8.4-4.1-11.7-7.4
					c-3.3-3.3-6-7.3-7.9-12.2c-1.9-4.9-2.9-10.5-2.9-17c0-4.9,0.8-9.5,2.5-13.8c1.7-4.4,4-8.2,7.2-11.4c3.1-3.3,6.9-5.9,11.3-7.8
					c4.4-1.9,9.4-2.9,15-2.9c4.8,0,9.2,0.7,13.2,2.2c4,1.5,7.4,3.7,10.3,6.5c2.9,2.9,5.1,6.4,6.7,10.5c1.6,4.1,2.4,8.8,2.4,14.1
					c0,1.6-0.1,3-0.2,4c-0.1,1-0.4,1.8-0.8,2.5c-0.4,0.6-0.9,1-1.5,1.3s-1.4,0.4-2.4,0.4H560.9z M588.2,581.3c0-1.7-0.2-3.4-0.7-5.1
					c-0.4-1.6-1.2-3.1-2.2-4.4c-1-1.3-2.3-2.3-4-3.1c-1.6-0.8-3.6-1.2-6-1.2c-4.1,0-7.3,1.2-9.7,3.5c-2.3,2.4-3.9,5.8-4.6,10.2
					H588.2z"/>
			</g>
			<g class="st0">
				<path class="st1" d="M52.6,744.9c3.2,0,6-0.5,8.5-1.6c2.5-1.1,4.6-2.6,6.4-4.5c1.7-2,3.1-4.4,4-7.2c0.9-2.8,1.4-6,1.4-9.7v-60.6
					h23.7v60.6c0,6.3-1,12-3.1,17.3c-2,5.2-4.9,9.8-8.7,13.5c-3.8,3.8-8.4,6.7-13.8,8.8c-5.4,2.1-11.5,3.2-18.3,3.2
					c-6.8,0-13-1.1-18.4-3.2c-5.4-2.1-10-5.1-13.8-8.8c-3.8-3.8-6.7-8.3-8.7-13.5c-2-5.2-3-11-3-17.3v-60.6h23.7v60.5
					c0,3.6,0.5,6.8,1.4,9.7c0.9,2.8,2.2,5.2,4,7.2c1.7,2,3.8,3.5,6.4,4.6C46.5,744.4,49.4,744.9,52.6,744.9z"/>
			</g>
			<g class="st0">
				<path class="st1" d="M130.1,698.7c1.4-1.3,2.9-2.5,4.4-3.6c1.5-1.1,3.1-2.1,4.8-2.8c1.7-0.8,3.6-1.4,5.5-1.8
					c2-0.4,4.2-0.7,6.5-0.7c4,0,7.5,0.7,10.6,2.1c3.1,1.4,5.7,3.3,7.8,5.8c2.1,2.5,3.7,5.4,4.8,8.8c1.1,3.4,1.6,7.1,1.6,11.1v46.3
					h-21.8v-46.3c0-3.6-0.8-6.3-2.5-8.3c-1.6-2-4-3-7.2-3c-2.4,0-4.6,0.5-6.7,1.5c-2.1,1-4.1,2.4-6.1,4.1v51.9h-21.8v-72.8h13.5
					c2.7,0,4.5,1.2,5.3,3.7L130.1,698.7z"/>
				<path class="st1" d="M214.6,670.9c0,1.7-0.4,3.4-1.1,4.9c-0.7,1.5-1.7,2.9-2.9,4c-1.2,1.1-2.6,2.1-4.2,2.7c-1.6,0.7-3.3,1-5.2,1
					c-1.8,0-3.4-0.3-5-1c-1.5-0.7-2.9-1.6-4.1-2.7c-1.2-1.1-2.1-2.5-2.8-4c-0.7-1.5-1-3.1-1-4.9c0-1.8,0.3-3.4,1-5
					c0.7-1.5,1.6-2.9,2.8-4.1c1.2-1.2,2.6-2.1,4.1-2.7c1.5-0.7,3.2-1,5-1c1.8,0,3.5,0.3,5.2,1c1.6,0.7,3,1.6,4.2,2.7
					c1.2,1.2,2.2,2.5,2.9,4.1C214.2,667.5,214.6,669.1,214.6,670.9z M212.3,690.8v72.8h-21.8v-72.8H212.3z"/>
			</g>
			<g class="st0">
				<path class="st1" d="M296.1,690.8l-28.2,72.8h-19.8l-28.2-72.8H238c1.5,0,2.8,0.4,3.9,1.1c1.1,0.7,1.8,1.6,2.1,2.7l10.1,32.6
					c0.9,2.7,1.7,5.3,2.4,7.8c0.7,2.5,1.3,5.1,1.8,7.6c1-5.1,2.5-10.2,4.3-15.4l10.5-32.6c0.4-1.1,1.1-2,2.1-2.7
					c1-0.7,2.2-1.1,3.6-1.1H296.1z"/>
			</g>
			<g class="st0">
				<path class="st1" d="M318.7,731.1c0.7,6.1,2.5,10.5,5.5,13.2c3,2.7,6.9,4.1,11.6,4.1c2.5,0,4.7-0.3,6.5-0.9
					c1.8-0.6,3.5-1.3,4.9-2c1.4-0.7,2.7-1.4,3.9-2c1.2-0.6,2.4-0.9,3.8-0.9c1.7,0,3,0.6,3.9,1.9l6.3,7.8c-2.2,2.6-4.7,4.7-7.3,6.3
					c-2.6,1.6-5.3,2.9-8,3.8c-2.7,0.9-5.5,1.5-8.2,1.9c-2.7,0.4-5.3,0.5-7.8,0.5c-5.1,0-9.9-0.8-14.4-2.5c-4.5-1.7-8.4-4.1-11.7-7.4
					c-3.3-3.3-6-7.3-7.9-12.2c-1.9-4.9-2.9-10.5-2.9-17c0-4.9,0.8-9.5,2.5-13.8c1.7-4.4,4-8.2,7.2-11.4c3.1-3.3,6.9-5.9,11.3-7.8
					c4.4-1.9,9.4-2.9,15-2.9c4.8,0,9.2,0.7,13.2,2.2c4,1.5,7.4,3.7,10.3,6.5c2.9,2.9,5.1,6.4,6.7,10.5c1.6,4.1,2.4,8.8,2.4,14.1
					c0,1.6-0.1,3-0.2,4c-0.1,1-0.4,1.8-0.8,2.5c-0.4,0.6-0.9,1-1.5,1.3s-1.4,0.4-2.4,0.4H318.7z M346.1,718.5c0-1.7-0.2-3.4-0.7-5.1
					c-0.4-1.6-1.2-3.1-2.2-4.4c-1-1.3-2.3-2.3-4-3.1c-1.6-0.8-3.6-1.2-6-1.2c-4.1,0-7.3,1.2-9.7,3.5c-2.3,2.4-3.9,5.8-4.6,10.2
					H346.1z"/>
				<path class="st1" d="M396.8,702.1c2.2-3.9,4.8-7,7.8-9.3c2.9-2.2,6.3-3.4,10.1-3.4c3.3,0,5.9,0.8,8,2.3l-1.4,16
					c-0.2,1-0.6,1.7-1.2,2.1c-0.5,0.4-1.3,0.6-2.2,0.6c-0.4,0-0.9,0-1.5-0.1c-0.6,0-1.2-0.1-1.9-0.2c-0.7-0.1-1.3-0.1-2-0.2
					c-0.7-0.1-1.3-0.1-1.9-0.1c-3.2,0-5.7,0.8-7.6,2.5s-3.5,4-4.8,7v44.2h-21.8v-72.8h12.9c1.1,0,2,0.1,2.7,0.3
					c0.7,0.2,1.3,0.5,1.8,0.9c0.5,0.4,0.9,0.9,1.1,1.6c0.3,0.7,0.5,1.5,0.7,2.4L396.8,702.1z"/>
				<path class="st1" d="M476.3,706.8c-0.6,0.9-1.2,1.5-1.8,1.9c-0.6,0.4-1.4,0.6-2.4,0.6c-1,0-2.1-0.2-3.1-0.7
					c-1-0.4-2.1-0.9-3.3-1.4c-1.2-0.5-2.5-1-4-1.4c-1.5-0.4-3.2-0.7-5.1-0.7c-2.8,0-4.9,0.5-6.4,1.6c-1.5,1.1-2.2,2.5-2.2,4.4
					c0,1.4,0.5,2.5,1.4,3.4c1,0.9,2.2,1.7,3.8,2.4c1.6,0.7,3.4,1.3,5.4,1.9c2,0.6,4.1,1.3,6.2,2c2.1,0.7,4.2,1.6,6.2,2.6
					c2,1,3.8,2.2,5.4,3.7c1.6,1.5,2.9,3.3,3.8,5.4c1,2.1,1.4,4.6,1.4,7.6c0,3.6-0.7,6.9-2,10c-1.3,3-3.3,5.7-5.9,7.9
					c-2.6,2.2-5.8,3.9-9.6,5.1c-3.8,1.2-8.2,1.8-13.2,1.8c-2.5,0-5-0.2-7.4-0.7c-2.5-0.5-4.9-1.1-7.2-1.9s-4.5-1.7-6.4-2.8
					c-2-1.1-3.7-2.3-5.1-3.5l5.1-8c0.6-0.9,1.3-1.7,2.1-2.2c0.9-0.5,2-0.8,3.3-0.8c1.3,0,2.4,0.3,3.4,0.8c1,0.6,2.1,1.2,3.3,1.8
					c1.2,0.7,2.5,1.3,4.1,1.8c1.6,0.6,3.5,0.8,5.9,0.8c1.7,0,3.1-0.2,4.3-0.5c1.2-0.4,2.1-0.8,2.8-1.4c0.7-0.6,1.2-1.3,1.5-2
					c0.3-0.7,0.5-1.5,0.5-2.3c0-1.4-0.5-2.6-1.5-3.6c-1-0.9-2.3-1.7-3.9-2.4c-1.6-0.7-3.4-1.3-5.4-1.9s-4.1-1.3-6.2-2
					c-2.1-0.7-4.2-1.6-6.2-2.7c-2-1.1-3.8-2.4-5.4-4c-1.6-1.6-2.9-3.6-3.9-5.9s-1.5-5.2-1.5-8.5c0-3.1,0.6-6,1.8-8.8s3-5.2,5.4-7.3
					c2.4-2.1,5.4-3.8,9-5c3.6-1.2,7.8-1.9,12.6-1.9c2.6,0,5.2,0.2,7.6,0.7c2.5,0.5,4.8,1.1,6.9,2c2.2,0.8,4.1,1.8,5.9,3
					c1.8,1.1,3.3,2.4,4.7,3.8L476.3,706.8z"/>
				<path class="st1" d="M517,670.9c0,1.7-0.4,3.4-1.1,4.9c-0.7,1.5-1.7,2.9-2.9,4c-1.2,1.1-2.6,2.1-4.2,2.7c-1.6,0.7-3.3,1-5.2,1
					c-1.8,0-3.4-0.3-5-1c-1.5-0.7-2.9-1.6-4.1-2.7c-1.2-1.1-2.1-2.5-2.8-4c-0.7-1.5-1-3.1-1-4.9c0-1.8,0.3-3.4,1-5
					c0.7-1.5,1.6-2.9,2.8-4.1c1.2-1.2,2.6-2.1,4.1-2.7s3.2-1,5-1c1.8,0,3.5,0.3,5.2,1s3,1.6,4.2,2.7c1.2,1.2,2.2,2.5,2.9,4.1
					C516.7,667.5,517,669.1,517,670.9z M514.8,690.8v72.8H493v-72.8H514.8z"/>
				<path class="st1" d="M556.1,764.7c-3.5,0-6.5-0.5-9.2-1.5c-2.6-1-4.9-2.4-6.7-4.3c-1.8-1.8-3.2-4.1-4.1-6.7
					c-0.9-2.6-1.4-5.5-1.4-8.8v-37.6h-6.2c-1.1,0-2.1-0.4-2.9-1.1c-0.8-0.7-1.2-1.8-1.2-3.2v-8.5l11.6-2.2l4.3-17.8
					c0.6-2.2,2.2-3.4,4.8-3.4h11.4V691h18v14.9h-18V742c0,1.7,0.4,3.1,1.2,4.2c0.8,1.1,2,1.6,3.5,1.6c0.8,0,1.5-0.1,2-0.2
					c0.5-0.2,1-0.4,1.4-0.6c0.4-0.2,0.8-0.4,1.1-0.6c0.4-0.2,0.8-0.2,1.2-0.2c0.7,0,1.2,0.2,1.6,0.5c0.4,0.3,0.8,0.8,1.2,1.4
					l6.6,10.3c-2.8,2.1-6,3.7-9.5,4.7S559.8,764.7,556.1,764.7z"/>
			</g>
			<g class="st0">
				<path class="st1" d="M653.1,690.8l-38.9,91.7c-0.7,1.5-1.5,2.5-2.4,3.2c-0.9,0.7-2.4,1-4.5,1H591l14-29.5L576,690.8h19.2
					c1.7,0,3,0.4,3.9,1.1c0.9,0.7,1.6,1.6,2,2.7L613,726c1.1,2.9,2,5.8,2.7,8.8c0.5-1.5,1-3,1.5-4.5c0.5-1.5,1.1-3,1.6-4.4
					l10.8-31.2c0.4-1.1,1.2-2,2.2-2.7c1.1-0.7,2.2-1.1,3.5-1.1H653.1z"/>
			</g>
		</g>
	</g>
</g>
<g id="Layer_2_1_">
	<g>
		<polygon class="st1" points="603.3,120.6 374,-1.4 374,69 525.1,151.9 374,228.9 374,298.5 470.8,249.2 470.8,338.9 331.7,408 
			331.5,407.9 331.3,408 192.3,338.9 192.3,249.2 288.9,298.5 288.9,228.8 138,151.9 288.9,69.1 288.9,-1.3 55.4,122.9 55.4,179.4 
			130.2,217.5 130.2,377.4 331.5,477.4 532.9,377.4 532.9,217.5 603.3,181.6 		"/>
	</g>
</g>
</svg>
