<?xml version="1.0" encoding="utf-8"?>
<!-- Generator: Adobe Illustrator 22.0.1, SVG Export Plug-In . SVG Version: 6.00 Build 0)  -->
<svg version="1.1" id="Layer_1" xmlns="http://www.w3.org/2000/svg" xmlns:xlink="http://www.w3.org/1999/xlink" x="0px" y="0px"
	 viewBox="0 0 685.1 217.5" style="enable-background:new 0 0 685.1 217.5;" xml:space="preserve">
<style type="text/css">
	.st0{fill:#FFFFFF;}
</style>
<title>SoftUni_Logo_Oneline_White</title>
<path class="st0" d="M143.3,0L0,76.2l56,28.5v69.4l87.3,43.4l87.4-43.4v-69.3l56-28.5L143.3,0z M203.8,157.5l-60.4,30l0,0l0,0
	l-60.4-30v-38.9l60.4,30.8l0,0l60.4-30.8L203.8,157.5L203.8,157.5z M143.3,119.1l-84-42.8l84-46.1l84,46.1L143.3,119.1z"/>
<g>
	<path class="st0" d="M371.7,91.1c-0.5,0.8-1,1.4-1.7,2c-0.7,0.5-1.5,0.7-2.3,0.7c-0.9,0-1.9-0.3-2.6-0.8l-3.2-1.8
		c-1.3-0.7-2.7-1.3-4.2-1.8c-1.7-0.6-3.5-0.8-5.3-0.8c-3.4,0-5.9,0.8-7.6,2.2c-1.7,1.5-2.6,3.7-2.5,5.9c0,1.5,0.5,2.9,1.5,4
		c1.1,1.1,2.5,2.1,4,2.7c1.8,0.8,3.8,1.5,5.7,2.1c2.1,0.7,4.2,1.3,6.5,2.1c2.2,0.8,4.3,1.7,6.5,2.7c2.1,1,4,2.4,5.7,4.1
		c1.7,1.7,3,3.7,4,5.9c1,2.6,1.6,5.6,1.5,8.4c0,3.5-0.6,7-1.9,10.3c-1.2,3.1-3.1,5.9-5.5,8.3c-2.5,2.5-5.6,4.3-8.9,5.6
		c-3.9,1.4-7.9,2.1-12,2c-2.5,0-5-0.3-7.5-0.8c-2.5-0.5-5-1.2-7.4-2.2c-2.4-0.8-4.6-2-6.7-3.3c-2-1.2-3.9-2.6-5.5-4.2l5.4-8.6
		c0.5-0.7,1-1.1,1.7-1.5c0.7-0.4,1.5-0.7,2.3-0.7c1.1,0,2.3,0.4,3.3,1c1.1,0.7,2.4,1.4,3.8,2.3c1.5,0.9,3.1,1.7,4.8,2.3
		c2.1,0.8,4.2,1,6.4,1c3.3,0,5.9-0.8,7.7-2.2c1.9-1.4,2.7-3.8,2.7-7c0.1-1.6-0.5-3.2-1.5-4.5c-1.1-1.2-2.5-2.2-4-2.8
		c-1.8-0.8-3.7-1.5-5.6-2c-2.1-0.6-4.2-1.2-6.4-1.9c-2.2-0.8-4.3-1.6-6.4-2.6c-2.1-1-4-2.4-5.6-4.1c-1.7-1.8-3.1-4-4-6.3
		c-1.1-2.9-1.6-6.1-1.5-9.2c0-3,0.6-5.9,1.8-8.7c1.2-2.8,3-5.4,5.3-7.5c2.5-2.3,5.4-4.1,8.5-5.3c3.7-1.4,7.6-2.1,11.5-2
		c2.4,0,4.7,0.2,7.1,0.6c2.3,0.4,4.4,0.9,6.5,1.7c2,0.8,3.9,1.6,5.7,2.6c1.7,0.9,3.3,2.2,4.8,3.5L371.7,91.1z"/>
	<path class="st0" d="M412.1,96.9c4-0.1,7.9,0.7,11.6,2c3.4,1.2,6.4,3.2,9.1,5.8c2.5,2.5,4.5,5.7,5.8,9.1c1.4,3.9,2.2,7.9,2.1,12
		c0.1,4.2-0.7,8.2-2.1,12.1c-1.3,3.4-3.3,6.5-5.8,9.2c-2.5,2.5-5.7,4.5-9.1,5.8c-3.7,1.4-7.6,2.1-11.6,2c-4,0.1-8-0.7-11.7-2
		c-3.4-1.3-6.5-3.2-9.1-5.8c-2.6-2.5-4.6-5.8-5.9-9.2c-1.4-3.9-2.2-8-2.1-12.1c-0.1-4.1,0.7-8.1,2.1-12c1.3-3.4,3.3-6.5,5.9-9.1
		c2.6-2.5,5.7-4.5,9.1-5.8C404.1,97.5,408.1,96.8,412.1,96.9z M412.1,142.3c3.9,0,6.7-1.3,8.5-4.1c1.8-2.7,2.7-6.9,2.7-12.5
		s-0.9-9.7-2.7-12.4c-1.8-2.7-4.6-4.1-8.5-4.1c-4,0-6.9,1.3-8.7,4.1c-1.9,2.7-2.7,6.8-2.7,12.4s0.9,9.7,2.7,12.5
		C405.2,141,408.2,142.3,412.1,142.3L412.1,142.3z"/>
	<path class="st0" d="M505.2,109.4v27.9c0,1.1,0.3,2.3,0.9,3.2c0.7,0.8,1.7,1.3,2.7,1.3c0.6,0,1-0.1,1.5-0.2
		c0.4-0.1,0.8-0.3,1.1-0.5c0.3-0.2,0.6-0.3,0.8-0.5c0.3-0.1,0.7-0.2,0.9-0.2c0.5,0,0.8,0.1,1.2,0.4c0.4,0.3,0.7,0.7,0.9,1.1l5.1,7.9
		c-2.2,1.6-4.7,2.8-7.4,3.7c-2.7,0.8-5.6,1.2-8.4,1.2c-2.5,0-4.8-0.4-7.1-1.1c-4-1.4-7-4.5-8.3-8.5c-0.8-2.2-1.1-4.4-1-6.8v-29h-20
		V154h-16.8v-44.7l-3.7-0.8c-1.1-0.2-2.2-0.7-3-1.3c-0.8-0.7-1.2-1.7-1.1-2.7v-6.6h7.9v-3.2c0-3,0.5-5.9,1.5-8.7
		c0.9-2.5,2.5-4.8,4.4-6.7c2.1-1.9,4.4-3.4,7.1-4.2c3-1,6.2-1.6,9.4-1.5c1.2,0,2.5,0.1,3.8,0.3c1.2,0.2,2.5,0.5,3.7,0.8l-0.3,8.2
		c0,0.9-0.6,1.9-1.4,2.4c-0.4,0.3-0.8,0.4-1.3,0.6c-0.5,0.1-0.9,0.2-1.4,0.2c-1.3,0-2.6,0.1-4,0.5c-1,0.3-2.1,0.8-2.9,1.5
		c-0.8,0.8-1.4,1.8-1.8,2.9c-0.5,1.5-0.7,3-0.6,4.5v2.6h21.5l3.4-13.8c0.5-1.7,1.7-2.6,3.7-2.6h8.8v16.4h14v11.5L505.2,109.4z"/>
	<path class="st0" d="M560.5,139.5c2.3,0,4.5-0.4,6.6-1.2c1.9-0.8,3.6-2,4.9-3.5c1.4-1.6,2.5-3.5,3-5.6c0.8-2.5,1.1-4.9,1-7.5V75
		h18.4v46.7c0.1,4.5-0.8,9.1-2.4,13.3c-1.5,4-3.8,7.5-6.8,10.5c-3,3-6.7,5.3-10.7,6.8c-9.2,3.2-19.2,3.2-28.3,0
		c-4-1.5-7.6-3.9-10.7-6.8c-2.9-2.9-5.3-6.5-6.7-10.5c-1.6-4.2-2.4-8.8-2.4-13.3V75h18.3v46.7c0,2.5,0.3,5,1,7.5
		c0.7,2.1,1.7,4,3,5.6c1.3,1.5,3,2.7,4.9,3.5C556.1,139.1,558.2,139.5,560.5,139.5z"/>
	<path class="st0" d="M620.4,103.8c1-1,2.2-2,3.4-2.8c1.1-0.8,2.4-1.6,3.7-2.2c1.4-0.7,2.8-1,4.2-1.4c1.6-0.4,3.3-0.6,5-0.6
		c2.8-0.1,5.6,0.5,8.1,1.6c2.3,1,4.3,2.5,5.9,4.4c1.7,2,2.9,4.2,3.7,6.8c0.8,2.7,1.2,5.7,1.2,8.5v35.7h-16.8v-35.7
		c0.1-2.3-0.6-4.5-1.9-6.4c-1.4-1.6-3.5-2.5-5.6-2.3c-1.8,0-3.6,0.4-5.2,1.1c-1.7,0.8-3.3,1.9-4.7,3.2v40.1h-16.7V97.8h10.4
		c1.9-0.2,3.6,1,4.2,2.8L620.4,103.8z"/>
	<path class="st0" d="M685.5,82.4c0,1.3-0.3,2.5-0.8,3.8c-0.6,1.1-1.3,2.2-2.2,3.1c-0.9,0.8-2.1,1.6-3.3,2.1c-1.2,0.6-2.6,0.8-4,0.8
		s-2.6-0.3-3.9-0.8c-1.1-0.5-2.3-1.2-3.2-2.1c-0.9-0.8-1.7-1.9-2.2-3.1c-0.6-1.2-0.8-2.5-0.8-3.8c0-1.3,0.3-2.6,0.8-3.9
		c0.5-1.1,1.2-2.3,2.2-3.1c0.9-0.9,2-1.6,3.2-2.1s2.5-0.8,3.9-0.8c1.3,0,2.7,0.3,4,0.8s2.4,1.2,3.3,2.1c0.9,0.8,1.7,2,2.2,3.1
		C685.2,79.7,685.5,81.1,685.5,82.4z M683.8,97.8v56.1H667V97.8H683.8z"/>
</g>
</svg>
